<mxfile host="app.diagrams.net" modified="2021-02-24T21:03:51.317Z" agent="5.0 (Windows NT 10.0; Win64; x64) AppleWebKit/537.36 (KHTML, like Gecko) Chrome/88.0.4324.182 Safari/537.36 Edg/88.0.705.74" etag="0o9-6QDkcugh9m4gZtU-" version="14.4.2" type="github">
  <diagram id="Wy_FP-EbNWQaLovOoS0i" name="Page-1">
    <mxGraphModel dx="1484" dy="612" grid="1" gridSize="10" guides="1" tooltips="1" connect="1" arrows="1" fold="1" page="1" pageScale="1" pageWidth="827" pageHeight="1169" math="0" shadow="0">
      <root>
        <mxCell id="0" />
        <mxCell id="1" parent="0" />
        <mxCell id="VmJAtsZKO_WWE-akbVnx-4" value="Customer" style="swimlane;fontStyle=0;childLayout=stackLayout;horizontal=1;startSize=26;fillColor=none;horizontalStack=0;resizeParent=1;resizeParentMax=0;resizeLast=0;collapsible=1;marginBottom=0;" parent="1" vertex="1">
          <mxGeometry x="50" y="100" width="260" height="100" as="geometry" />
        </mxCell>
        <mxCell id="VmJAtsZKO_WWE-akbVnx-5" value="id - Primary Key Not Null Auto-Increment " style="text;strokeColor=none;fillColor=none;align=left;verticalAlign=top;spacingLeft=4;spacingRight=4;overflow=hidden;rotatable=0;points=[[0,0.5],[1,0.5]];portConstraint=eastwest;" parent="VmJAtsZKO_WWE-akbVnx-4" vertex="1">
          <mxGeometry y="26" width="260" height="26" as="geometry" />
        </mxCell>
        <mxCell id="VmJAtsZKO_WWE-akbVnx-6" value="first_name - String  Not Null" style="text;strokeColor=none;fillColor=none;align=left;verticalAlign=top;spacingLeft=4;spacingRight=4;overflow=hidden;rotatable=0;points=[[0,0.5],[1,0.5]];portConstraint=eastwest;" parent="VmJAtsZKO_WWE-akbVnx-4" vertex="1">
          <mxGeometry y="52" width="260" height="26" as="geometry" />
        </mxCell>
        <mxCell id="VmJAtsZKO_WWE-akbVnx-7" value="surname String Not Null" style="text;strokeColor=none;fillColor=none;align=left;verticalAlign=top;spacingLeft=4;spacingRight=4;overflow=hidden;rotatable=0;points=[[0,0.5],[1,0.5]];portConstraint=eastwest;" parent="VmJAtsZKO_WWE-akbVnx-4" vertex="1">
          <mxGeometry y="78" width="260" height="22" as="geometry" />
        </mxCell>
        <mxCell id="VmJAtsZKO_WWE-akbVnx-8" value="Entity Relationship Diagram - IMS-Starter - Christopher Yiangou" style="rounded=0;whiteSpace=wrap;html=1;" parent="1" vertex="1">
          <mxGeometry x="210" width="250" height="60" as="geometry" />
        </mxCell>
        <mxCell id="63-Er44Fi6OJkx_Yc5xF-1" value="Items " style="swimlane;fontStyle=0;childLayout=stackLayout;horizontal=1;startSize=26;fillColor=none;horizontalStack=0;resizeParent=1;resizeParentMax=0;resizeLast=0;collapsible=1;marginBottom=0;" parent="1" vertex="1">
          <mxGeometry x="390" y="90" width="290" height="100" as="geometry" />
        </mxCell>
        <mxCell id="63-Er44Fi6OJkx_Yc5xF-2" value="ItemsID - Primary Key - Not Null Auto_Increment  " style="text;strokeColor=none;fillColor=none;align=left;verticalAlign=top;spacingLeft=4;spacingRight=4;overflow=hidden;rotatable=0;points=[[0,0.5],[1,0.5]];portConstraint=eastwest;" parent="63-Er44Fi6OJkx_Yc5xF-1" vertex="1">
          <mxGeometry y="26" width="290" height="26" as="geometry" />
        </mxCell>
        <mxCell id="63-Er44Fi6OJkx_Yc5xF-3" value="OrderItem - Varchar(40)" style="text;strokeColor=none;fillColor=none;align=left;verticalAlign=top;spacingLeft=4;spacingRight=4;overflow=hidden;rotatable=0;points=[[0,0.5],[1,0.5]];portConstraint=eastwest;" parent="63-Er44Fi6OJkx_Yc5xF-1" vertex="1">
          <mxGeometry y="52" width="290" height="26" as="geometry" />
        </mxCell>
        <mxCell id="63-Er44Fi6OJkx_Yc5xF-4" value="price - Double " style="text;strokeColor=none;fillColor=none;align=left;verticalAlign=top;spacingLeft=4;spacingRight=4;overflow=hidden;rotatable=0;points=[[0,0.5],[1,0.5]];portConstraint=eastwest;" parent="63-Er44Fi6OJkx_Yc5xF-1" vertex="1">
          <mxGeometry y="78" width="290" height="22" as="geometry" />
        </mxCell>
        <mxCell id="63-Er44Fi6OJkx_Yc5xF-20" value="Orders" style="swimlane;fontStyle=0;childLayout=stackLayout;horizontal=1;startSize=26;fillColor=none;horizontalStack=0;resizeParent=1;resizeParentMax=0;resizeLast=0;collapsible=1;marginBottom=0;" parent="1" vertex="1">
          <mxGeometry x="490" y="280" width="160" height="120" as="geometry" />
        </mxCell>
        <mxCell id="63-Er44Fi6OJkx_Yc5xF-21" value="OrderID Primary Key " style="text;strokeColor=none;fillColor=none;align=left;verticalAlign=top;spacingLeft=4;spacingRight=4;overflow=hidden;rotatable=0;points=[[0,0.5],[1,0.5]];portConstraint=eastwest;" parent="63-Er44Fi6OJkx_Yc5xF-20" vertex="1">
          <mxGeometry y="26" width="160" height="26" as="geometry" />
        </mxCell>
        <mxCell id="63-Er44Fi6OJkx_Yc5xF-22" value="CustomerID" style="text;strokeColor=none;fillColor=none;align=left;verticalAlign=top;spacingLeft=4;spacingRight=4;overflow=hidden;rotatable=0;points=[[0,0.5],[1,0.5]];portConstraint=eastwest;" parent="63-Er44Fi6OJkx_Yc5xF-20" vertex="1">
          <mxGeometry y="52" width="160" height="26" as="geometry" />
        </mxCell>
        <mxCell id="63-Er44Fi6OJkx_Yc5xF-23" value="ItemID" style="text;strokeColor=none;fillColor=none;align=left;verticalAlign=top;spacingLeft=4;spacingRight=4;overflow=hidden;rotatable=0;points=[[0,0.5],[1,0.5]];portConstraint=eastwest;" parent="63-Er44Fi6OJkx_Yc5xF-20" vertex="1">
          <mxGeometry y="78" width="160" height="42" as="geometry" />
        </mxCell>
        <mxCell id="63-Er44Fi6OJkx_Yc5xF-24" value="OrderContents" style="swimlane;fontStyle=0;childLayout=stackLayout;horizontal=1;startSize=26;fillColor=none;horizontalStack=0;resizeParent=1;resizeParentMax=0;resizeLast=0;collapsible=1;marginBottom=0;" parent="1" vertex="1">
          <mxGeometry x="95" y="280" width="250" height="130" as="geometry" />
        </mxCell>
        <mxCell id="63-Er44Fi6OJkx_Yc5xF-25" value="OrderContents_ID Primary Key NOT NULL Auto_Increment  " style="text;strokeColor=none;fillColor=none;align=left;verticalAlign=top;spacingLeft=4;spacingRight=4;overflow=hidden;rotatable=0;points=[[0,0.5],[1,0.5]];portConstraint=eastwest;" parent="63-Er44Fi6OJkx_Yc5xF-24" vertex="1">
          <mxGeometry y="26" width="250" height="26" as="geometry" />
        </mxCell>
        <mxCell id="63-Er44Fi6OJkx_Yc5xF-27" value="OrderID" style="text;strokeColor=none;fillColor=none;align=left;verticalAlign=top;spacingLeft=4;spacingRight=4;overflow=hidden;rotatable=0;points=[[0,0.5],[1,0.5]];portConstraint=eastwest;" parent="63-Er44Fi6OJkx_Yc5xF-24" vertex="1">
          <mxGeometry y="52" width="250" height="26" as="geometry" />
        </mxCell>
        <mxCell id="63-Er44Fi6OJkx_Yc5xF-28" value="ItemID" style="text;strokeColor=none;fillColor=none;align=left;verticalAlign=top;spacingLeft=4;spacingRight=4;overflow=hidden;rotatable=0;points=[[0,0.5],[1,0.5]];portConstraint=eastwest;" parent="63-Er44Fi6OJkx_Yc5xF-24" vertex="1">
          <mxGeometry y="78" width="250" height="26" as="geometry" />
        </mxCell>
        <mxCell id="63-Er44Fi6OJkx_Yc5xF-29" value="Quantity" style="text;strokeColor=none;fillColor=none;align=left;verticalAlign=top;spacingLeft=4;spacingRight=4;overflow=hidden;rotatable=0;points=[[0,0.5],[1,0.5]];portConstraint=eastwest;" parent="63-Er44Fi6OJkx_Yc5xF-24" vertex="1">
          <mxGeometry y="104" width="250" height="26" as="geometry" />
        </mxCell>
        <mxCell id="63-Er44Fi6OJkx_Yc5xF-30" value="Customer&amp;nbsp;&lt;br&gt;" style="rounded=0;whiteSpace=wrap;html=1;" parent="1" vertex="1">
          <mxGeometry x="160" y="680" width="120" height="60" as="geometry" />
        </mxCell>
        <mxCell id="63-Er44Fi6OJkx_Yc5xF-31" value="" style="endArrow=none;html=1;exitX=0.067;exitY=0;exitDx=0;exitDy=0;exitPerimeter=0;" parent="1" source="63-Er44Fi6OJkx_Yc5xF-30" target="63-Er44Fi6OJkx_Yc5xF-32" edge="1">
          <mxGeometry width="50" height="50" relative="1" as="geometry">
            <mxPoint x="170" y="830" as="sourcePoint" />
            <mxPoint x="120" y="770" as="targetPoint" />
          </mxGeometry>
        </mxCell>
        <mxCell id="63-Er44Fi6OJkx_Yc5xF-32" value="ID" style="ellipse;whiteSpace=wrap;html=1;" parent="1" vertex="1">
          <mxGeometry x="80" y="540" width="110" height="60" as="geometry" />
        </mxCell>
        <mxCell id="63-Er44Fi6OJkx_Yc5xF-33" value="" style="endArrow=none;html=1;entryX=0;entryY=1;entryDx=0;entryDy=0;" parent="1" source="63-Er44Fi6OJkx_Yc5xF-34" target="63-Er44Fi6OJkx_Yc5xF-30" edge="1">
          <mxGeometry width="50" height="50" relative="1" as="geometry">
            <mxPoint x="120" y="940" as="sourcePoint" />
            <mxPoint x="180" y="890" as="targetPoint" />
            <Array as="points" />
          </mxGeometry>
        </mxCell>
        <mxCell id="63-Er44Fi6OJkx_Yc5xF-34" value="Surname" style="ellipse;whiteSpace=wrap;html=1;" parent="1" vertex="1">
          <mxGeometry y="710" width="120" height="80" as="geometry" />
        </mxCell>
        <mxCell id="63-Er44Fi6OJkx_Yc5xF-35" value="first_name" style="ellipse;whiteSpace=wrap;html=1;" parent="1" vertex="1">
          <mxGeometry x="10" y="600" width="120" height="80" as="geometry" />
        </mxCell>
        <mxCell id="63-Er44Fi6OJkx_Yc5xF-37" value="" style="endArrow=none;html=1;entryX=0;entryY=0.5;entryDx=0;entryDy=0;exitX=1;exitY=0.5;exitDx=0;exitDy=0;" parent="1" source="63-Er44Fi6OJkx_Yc5xF-35" target="63-Er44Fi6OJkx_Yc5xF-30" edge="1">
          <mxGeometry width="50" height="50" relative="1" as="geometry">
            <mxPoint x="80" y="900" as="sourcePoint" />
            <mxPoint x="130" y="850" as="targetPoint" />
          </mxGeometry>
        </mxCell>
        <mxCell id="63-Er44Fi6OJkx_Yc5xF-39" value="Orders" style="rounded=0;whiteSpace=wrap;html=1;" parent="1" vertex="1">
          <mxGeometry x="520" y="900" width="120" height="60" as="geometry" />
        </mxCell>
        <mxCell id="63-Er44Fi6OJkx_Yc5xF-41" value="Items" style="rounded=0;whiteSpace=wrap;html=1;" parent="1" vertex="1">
          <mxGeometry x="510" y="670" width="130" height="70" as="geometry" />
        </mxCell>
        <mxCell id="63-Er44Fi6OJkx_Yc5xF-42" value="" style="endArrow=none;html=1;exitX=0.88;exitY=-0.035;exitDx=0;exitDy=0;exitPerimeter=0;" parent="1" source="63-Er44Fi6OJkx_Yc5xF-41" target="63-Er44Fi6OJkx_Yc5xF-43" edge="1">
          <mxGeometry width="50" height="50" relative="1" as="geometry">
            <mxPoint x="630" y="680" as="sourcePoint" />
            <mxPoint x="710" y="610" as="targetPoint" />
          </mxGeometry>
        </mxCell>
        <mxCell id="63-Er44Fi6OJkx_Yc5xF-43" value="ItemID" style="ellipse;whiteSpace=wrap;html=1;" parent="1" vertex="1">
          <mxGeometry x="630" y="545" width="120" height="80" as="geometry" />
        </mxCell>
        <mxCell id="63-Er44Fi6OJkx_Yc5xF-46" value="" style="endArrow=none;html=1;" parent="1" target="63-Er44Fi6OJkx_Yc5xF-47" edge="1">
          <mxGeometry width="50" height="50" relative="1" as="geometry">
            <mxPoint x="640" y="679" as="sourcePoint" />
            <mxPoint x="720" y="620" as="targetPoint" />
          </mxGeometry>
        </mxCell>
        <mxCell id="63-Er44Fi6OJkx_Yc5xF-47" value="Order_Item" style="ellipse;whiteSpace=wrap;html=1;" parent="1" vertex="1">
          <mxGeometry x="707" y="640" width="120" height="80" as="geometry" />
        </mxCell>
        <mxCell id="63-Er44Fi6OJkx_Yc5xF-49" value="" style="endArrow=none;html=1;exitX=1;exitY=0.75;exitDx=0;exitDy=0;" parent="1" source="63-Er44Fi6OJkx_Yc5xF-41" target="63-Er44Fi6OJkx_Yc5xF-50" edge="1">
          <mxGeometry width="50" height="50" relative="1" as="geometry">
            <mxPoint x="637.2" y="767.1523297269155" as="sourcePoint" />
            <mxPoint x="722.8000000000001" y="770" as="targetPoint" />
          </mxGeometry>
        </mxCell>
        <mxCell id="63-Er44Fi6OJkx_Yc5xF-50" value="Price" style="ellipse;whiteSpace=wrap;html=1;" parent="1" vertex="1">
          <mxGeometry x="662.8000000000001" y="730" width="120" height="80" as="geometry" />
        </mxCell>
        <mxCell id="63-Er44Fi6OJkx_Yc5xF-51" value="" style="endArrow=none;html=1;entryX=0;entryY=0;entryDx=0;entryDy=0;" parent="1" target="63-Er44Fi6OJkx_Yc5xF-55" edge="1">
          <mxGeometry width="50" height="50" relative="1" as="geometry">
            <mxPoint x="640.0000000000001" y="960" as="sourcePoint" />
            <mxPoint x="742.2" y="1040" as="targetPoint" />
            <Array as="points">
              <mxPoint x="682.2" y="1010" />
            </Array>
          </mxGeometry>
        </mxCell>
        <mxCell id="63-Er44Fi6OJkx_Yc5xF-54" value="OrderContents_ID" style="ellipse;whiteSpace=wrap;html=1;" parent="1" vertex="1">
          <mxGeometry y="990" width="100" height="80" as="geometry" />
        </mxCell>
        <mxCell id="63-Er44Fi6OJkx_Yc5xF-55" value="OrderID" style="ellipse;whiteSpace=wrap;html=1;" parent="1" vertex="1">
          <mxGeometry x="730" y="1020" width="120" height="80" as="geometry" />
        </mxCell>
        <mxCell id="63-Er44Fi6OJkx_Yc5xF-56" value="OrderContents" style="rounded=0;whiteSpace=wrap;html=1;" parent="1" vertex="1">
          <mxGeometry x="150" y="920" width="130" height="70" as="geometry" />
        </mxCell>
        <mxCell id="63-Er44Fi6OJkx_Yc5xF-57" value="" style="endArrow=none;html=1;exitX=0.659;exitY=0.025;exitDx=0;exitDy=0;exitPerimeter=0;entryX=0;entryY=0;entryDx=0;entryDy=0;" parent="1" source="63-Er44Fi6OJkx_Yc5xF-54" target="63-Er44Fi6OJkx_Yc5xF-56" edge="1">
          <mxGeometry width="50" height="50" relative="1" as="geometry">
            <mxPoint x="80" y="970" as="sourcePoint" />
            <mxPoint x="130" y="920" as="targetPoint" />
            <Array as="points">
              <mxPoint x="110" y="940" />
            </Array>
          </mxGeometry>
        </mxCell>
        <mxCell id="63-Er44Fi6OJkx_Yc5xF-58" value="Purchase" style="rhombus;whiteSpace=wrap;html=1;" parent="1" vertex="1">
          <mxGeometry x="340" y="690" width="120" height="50" as="geometry" />
        </mxCell>
        <mxCell id="63-Er44Fi6OJkx_Yc5xF-59" value="Payment&amp;nbsp;" style="rhombus;whiteSpace=wrap;html=1;" parent="1" vertex="1">
          <mxGeometry x="360" y="870" width="90" height="50" as="geometry" />
        </mxCell>
      </root>
    </mxGraphModel>
  </diagram>
</mxfile>
